<svg width="37" height="36" viewBox="0 0 37 36" fill="none" xmlns="http://www.w3.org/2000/svg">
<path d="M15.5 16.5V12L23 18L15.5 24V19.5H2V16.5H15.5ZM4.187 22.5H7.373C8.42007 25.0786 10.3306 27.2133 12.7777 28.5389C15.2248 29.8645 18.0565 30.2987 20.7883 29.7671C23.5202 29.2356 25.9825 27.7713 27.754 25.6249C29.5255 23.4784 30.4962 20.7831 30.5 18C30.5016 15.214 29.5337 12.5143 27.7624 10.3638C25.991 8.21342 23.5267 6.74634 20.792 6.21422C18.0572 5.6821 15.2226 6.11811 12.7742 7.44747C10.3258 8.77682 8.4162 10.9167 7.373 13.5H4.187C6.098 7.4145 11.783 3 18.5 3C26.7845 3 33.5 9.7155 33.5 18C33.5 26.2845 26.7845 33 18.5 33C11.783 33 6.098 28.5855 4.187 22.5Z" fill="#7F5539"/>
</svg>
