<svg width="39" height="33" viewBox="0 0 39 33" fill="none" xmlns="http://www.w3.org/2000/svg">
<g clip-path="url(#clip0_851_191)">
<path d="M34.7588 8.0108C34.7823 8.3512 34.7823 8.69159 34.7823 9.03512C34.7823 19.5026 26.8137 31.5747 12.2427 31.5747V31.5685C7.93841 31.5747 3.7235 30.3418 0.0999756 28.0171C0.725858 28.0924 1.35488 28.13 1.98547 28.1316C5.55252 28.1347 9.01762 26.9379 11.8239 24.7339C8.43409 24.6696 5.46154 22.4594 4.42311 19.2328C5.61056 19.4618 6.83409 19.4147 7.99958 19.0963C4.3039 18.3496 1.64507 15.1026 1.64507 11.3316C1.64507 11.2971 1.64507 11.2641 1.64507 11.2312C2.74625 11.8445 3.97919 12.1849 5.24037 12.2226C1.75958 9.89629 0.686642 5.26571 2.7886 1.64531C6.81056 6.59433 12.7447 9.60296 19.1149 9.92139C18.4764 7.17002 19.3486 4.28688 21.4066 2.35276C24.5972 -0.646452 29.6153 -0.492726 32.6145 2.69629C34.3886 2.34649 36.089 1.69551 37.6451 0.773156C37.0537 2.60688 35.816 4.16453 34.1627 5.15433C35.7329 4.96923 37.267 4.54884 38.7117 3.90727C37.6482 5.501 36.3086 6.88924 34.7588 8.0108Z" fill="#1D9BF0"/>
</g>
<defs>
<clipPath id="clip0_851_191">
<rect width="38.902" height="32" fill="white" transform="translate(0.0999756 0.200195)"/>
</clipPath>
</defs>
</svg>
